<svg width="396" height="132" viewBox="0 0 396 132" fill="none" xmlns="http://www.w3.org/2000/svg">
<rect y="12.9849" width="103.529" height="103.88" rx="28.9317" fill="#3692FF"/>
<path d="M49.9902 41.9061C51.2825 46.372 47.8655 51.2931 43.9487 52.4342C40.0319 53.5753 34.6808 51.2086 33.3885 46.7427C32.0962 42.2767 34.8091 36.0888 38.7259 34.9477C43.9487 33.4262 48.6978 37.4401 49.9902 41.9061Z" fill="#222327"/>
<path d="M52.1441 41.9061C50.8518 46.372 54.2688 51.2931 58.1856 52.4342C62.1024 53.5753 67.4535 51.2086 68.7458 46.7427C70.0381 42.2767 67.3252 36.0888 63.4084 34.9477C58.1856 33.4262 53.4364 37.4401 52.1441 41.9061Z" fill="#222327"/>
<path d="M76.3961 74.5325C76.3961 85.8917 65.2579 90.1141 50.0647 90.1141C34.8715 90.1141 23.9854 85.8917 23.9854 74.5325C23.9854 61.3192 34.8715 49.6018 50.0647 49.6018C65.2579 49.6018 76.3961 60.322 76.3961 74.5325Z" fill="#F3D6DD"/>
<path d="M45.036 72.2896C45.036 76.01 42.648 80.0912 39.311 80.0912C35.9741 80.0912 30.5835 77.0599 30.5835 71.5025C30.5835 66.282 36.4069 64.4253 42.4244 65.3786C46.1126 65.9629 45.036 68.5693 45.036 72.2896Z" fill="#222327"/>
<path d="M42.2455 71.914C42.2455 72.472 42.0777 72.9244 41.2385 72.9244C40.3993 72.9244 40.2314 72.472 40.2314 71.914C40.2314 71.356 40.5671 70.9036 41.2385 70.9036C41.9098 70.9036 42.2455 71.356 42.2455 71.914Z" fill="white"/>
<path d="M55.1872 72.2896C55.1872 76.01 57.5751 80.0912 60.9121 80.0912C64.2491 80.0912 69.6396 77.0599 69.6396 71.5025C69.6396 66.282 63.8162 64.4253 57.7987 65.3786C54.1105 65.9629 55.1872 68.5693 55.1872 72.2896Z" fill="#222327"/>
<path d="M57.9806 71.9138C57.9806 72.4718 58.1484 72.9242 58.9876 72.9242C59.8268 72.9242 59.9946 72.4718 59.9946 71.9138C59.9946 71.3557 59.659 70.9033 58.9876 70.9033C58.3163 70.9033 57.9806 71.3557 57.9806 71.9138Z" fill="white"/>
<path d="M46.2645 77.6711C46.0613 77.3745 45.6562 77.2988 45.3596 77.502C45.063 77.7052 44.9873 78.1104 45.1905 78.4069L46.2645 77.6711ZM49.998 76.8704L50.6139 76.6594C50.5237 76.3962 50.2762 76.2194 49.998 76.2194C49.7198 76.2194 49.4724 76.3962 49.3822 76.6594L49.998 76.8704ZM54.8055 78.4069C55.0087 78.1104 54.9331 77.7052 54.6365 77.502C54.3399 77.2988 53.9348 77.3745 53.7316 77.6711L54.8055 78.4069ZM45.1905 78.4069C45.3704 78.6694 45.697 79.0212 46.135 79.3118C46.5771 79.6051 47.1677 79.8586 47.8628 79.8586V78.5567C47.4903 78.5567 47.1467 78.4206 46.8547 78.2269C46.5588 78.0306 46.3516 77.7981 46.2645 77.6711L45.1905 78.4069ZM47.8628 79.8586C48.7183 79.8586 49.3545 79.2483 49.7505 78.7229C50.1686 78.1682 50.4641 77.5184 50.6139 77.0813L49.3822 76.6594C49.2651 77.0014 49.0267 77.5202 48.7109 77.9393C48.3728 78.3878 48.0749 78.5567 47.8628 78.5567V79.8586ZM49.3822 77.0813C49.532 77.5184 49.8274 78.1682 50.2456 78.7229C50.6416 79.2483 51.2778 79.8586 52.1333 79.8586V78.5567C51.9211 78.5567 51.6232 78.3878 51.2852 77.9393C50.9694 77.5202 50.731 77.0014 50.6139 76.6594L49.3822 77.0813ZM52.1333 79.8586C52.8284 79.8586 53.419 79.6051 53.861 79.3118C54.2991 79.0212 54.6257 78.6694 54.8055 78.4069L53.7316 77.6711C53.6445 77.7981 53.4373 78.0306 53.1413 78.2269C52.8494 78.4206 52.5058 78.5567 52.1333 78.5567V79.8586Z" fill="#222327"/>
<path d="M53.5516 76.2696C53.5516 76.8111 51.1134 77.5003 50.2928 77.717C50.1175 77.7633 49.9366 77.7633 49.7612 77.717C48.9406 77.5003 46.5024 76.8111 46.5024 76.2696C46.5024 75.6186 48.4512 74.9224 50.027 74.9224C51.6028 74.9224 53.5516 75.6186 53.5516 76.2696Z" fill="#222327"/>
<path d="M49.6061 58.951C39.8117 58.951 36.2122 55.51 35.6299 53.4974L40.2886 48.4334L50.3825 46.6804L64.3587 53.4974C63.5176 55.1205 59.4113 58.951 49.6061 58.951Z" fill="#222327"/>
<path fill-rule="evenodd" clip-rule="evenodd" d="M50.9616 95.7631C71.2016 95.7631 86.0397 90.0587 86.0397 74.7124C86.0397 55.5141 71.2016 41.0312 50.9616 41.0312C30.7216 41.0312 16.2192 56.8614 16.2192 74.7124C16.2192 90.0587 30.7216 95.7631 50.9616 95.7631ZM50.1654 89.8693C65.0535 89.8693 75.968 85.6919 75.968 74.4537C75.968 60.3947 65.0535 49.7888 50.1654 49.7888C35.2773 49.7888 24.6097 61.3813 24.6097 74.4537C24.6097 85.6919 35.2773 89.8693 50.1654 89.8693Z" fill="white"/>
<path d="M183.487 55.3344H191.448V64.6226H183.487V83.4644H171.545V71.7878C163.053 73.5127 154.627 74.4416 142.353 74.4416H128.421V65.3524H133.728V46.5106H129.748V37.5541H166.37V46.5106H162.389V64.3572C165.64 63.9592 168.692 63.4947 171.545 62.964V36.8906H183.487V55.3344ZM134.989 99.2544V79.5501H147.196V90.0325H184.814V99.2544H134.989ZM145.67 65.3524C147.329 65.286 148.921 65.286 150.447 65.2197V46.5106H145.67V65.3524ZM257.792 59.9785V69.2667H249.831V99.2544H237.889V88.8383C229.397 91.2931 220.971 92.6863 208.698 92.6863H196.756V38.881H230.724V47.8375H208.698V83.5971C220.839 83.5971 229.463 82.4029 237.889 80.0145V36.8906H249.831V59.9785H257.792ZM324.137 59.9785V69.2667H316.176V99.2544H304.234V36.8906H316.176V59.9785H324.137ZM263.1 92.6863V38.881H297.798V92.6863H263.1ZM275.042 83.5971H285.989V47.9702H275.042V83.5971ZM374.89 36.8906H386.501V72.8493H374.89V36.8906ZM325.464 65.7505C333.226 64.1582 339.064 61.7034 342.315 58.5853L329.444 59.3814V50.7566H345.102V46.5106H330.771V37.5541H356.712V49.4961H360.494V37.2224H371.772V72.8493H360.494V58.7843H354.987C351.471 65.6178 342.647 71.257 329.245 74.6406L325.464 65.7505ZM332.695 89.7671C349.082 89.17 353.859 85.7865 353.859 80.0145V74.9723H365.801V81.076C365.801 82.6683 365.602 84.1942 365.204 85.5874C372.9 86.1182 380.53 87.1797 386.501 88.5729L383.316 99.2544C376.483 96.866 366.929 94.5439 359.233 93.2834C353.726 96.9987 344.903 98.79 333.956 99.2544L332.695 89.7671Z" fill="#3692FF"/>
</svg>
